# xmcd
#
# Track frame offsets:
#	150
#	18432
#	32052
#	45785
#	63875
#	80712
#	96727
#	112632
#	127505
#	144525
#	163847
#	183110
#	197337
#	225637
#	241390
#
# Disc length: 3405 seconds
# Revision: 1
# Processed by: cddbd v1.5.2PL0 Copyright (c) Steve Scherf et al.
# Submitted via: dBpowerAMP V12.0
#
DISCID=b20d4b0f
DTITLE=Kid Ramos - Kid Ramos
DYEAR=1999
DGENRE=Blues
TTITLE0=Dead Love
TTITLE1=No More Alcohol
TTITLE2=Leave me Alone
TTITLE3=Three Hundred Pounds of Joy
TTITLE4=Walk-Around Telephone Blues
TTITLE5=The Jig's up
TTITLE6=Open up Your Heart
TTITLE7=Cold Chicken And Beer
TTITLE8=Fiddle de Dee
TTITLE9=One Woman, One Man
TTITLE10=It Takes Time
TTITLE11=I Don't Believe
TTITLE12=Helsinki Laundromat Blues
TTITLE13=Bandstand Boogie
TTITLE14=I Would be a Sinner
EXTD=
EXTT0=
EXTT1=
EXTT2=
EXTT3=
EXTT4=
EXTT5=
EXTT6=
EXTT7=
EXTT8=
EXTT9=
EXTT10=
EXTT11=
EXTT12=
EXTT13=
EXTT14=
PLAYORDER=
